<?xml version="1.0" encoding="UTF-8" standalone="no"?>
<svg
   xmlns:dc="http://purl.org/dc/elements/1.1/"
   xmlns:cc="http://creativecommons.org/ns#"
   xmlns:rdf="http://www.w3.org/1999/02/22-rdf-syntax-ns#"
   xmlns:svg="http://www.w3.org/2000/svg"
   xmlns="http://www.w3.org/2000/svg"
   xmlns:sodipodi="http://sodipodi.sourceforge.net/DTD/sodipodi-0.dtd"
   xmlns:inkscape="http://www.inkscape.org/namespaces/inkscape"
   height="285pt"
   width="275pt"
   version="1.1"
   viewBox="0 0 275 285"
   id="svg82"
   sodipodi:docname="logo.svg"
   inkscape:version="0.92.2 5c3e80d, 2017-08-06">
  <metadata
     id="metadata88">
    <rdf:RDF>
      <cc:Work
         rdf:about="">
        <dc:format>image/svg+xml</dc:format>
        <dc:type
           rdf:resource="http://purl.org/dc/dcmitype/StillImage" />
        <dc:title></dc:title>
      </cc:Work>
    </rdf:RDF>
  </metadata>
  <defs
     id="defs86" />
  <sodipodi:namedview
     pagecolor="#ffffff"
     bordercolor="#666666"
     borderopacity="1"
     objecttolerance="10"
     gridtolerance="10"
     guidetolerance="10"
     inkscape:pageopacity="0"
     inkscape:pageshadow="2"
     inkscape:window-width="1172"
     inkscape:window-height="1002"
     id="namedview84"
     showgrid="false"
     inkscape:pagecheckerboard="false"
     inkscape:zoom="0.62105263"
     inkscape:cx="303.53171"
     inkscape:cy="388.86435"
     inkscape:window-x="0"
     inkscape:window-y="27"
     inkscape:window-maximized="0"
     inkscape:current-layer="svg82" />
  <path
     fill="#010101"
     d="m139.28 13.02c7.18-7.79 17.52-9.85 27.51-11.91 5.22 4.58 10.53 9.07 16.09 13.23 0.08 4.91-0.46 9.78-1 14.64 22.12 2.57 44.49-0.2 66.63 1.37 9.1 4.37 22.05 9.15 21.9 21.31 3.26 16.56 0.33 33.45 0.74 50.13-0.1 49.1 4.73 98.23-0.34 147.29-7.06 11.08-13.22 25.73-27.79 27.95-38.74 13.47-79.87 1.61-119.64 4.26-24.88 5.07-50.13-0.59-75.23-0.51-14.31 1.54-24.82-9.85-34.74-18.19-9.29-25.03-13.13-52.48-11.06-79.19 2.75-44.28 6.59-88.56 6.82-132.94 2.62-6.17 6.15-12.63 11.18-17.14 24.02-11.36 51.07 0.02 76.44-1.36 0.91-4.14 1.81-8.28 2.82-12.4 12.53-5.67 25.72-9.65 39.67-6.54m20.4-2.67c-9.75-0.8-12.15 9.49-17.03 15.4-6.97-0.32-11.09-10.55-19.01-7.17-11.9 1.2-20.31 12.88-21.85 24.1-7.58 2.71-16.58-3.48-23.75 2.2-7.7 2.64-8.84 11.03-12.57 17.12-10.74-0.5-21.74-2.03-32.36-0.53-4.62 4.12-7.27 10.55-5.85 16.78 3.46 1.2 6.98 2.25 10.57 3.03 0.15 4.52 0.26 9.04 0.41 13.57 10.66-3.36 22.7 6.03 32.11-1.09 4.62 5.17 8.44 11.16 9.93 18.02 4.54-0.42 9.06-1.1 13.56-1.86 1.17-3.81 2.3-7.62 3.45-11.43 8.98 1.3 4.43-8.17 5.09-12.9 1.03-0.45 2.08-0.89 3.12-1.32 0.83 1.24 1.65 2.48 2.54 3.69 1.09 3.17 4.62 5.87 3.68 9.48-3.28 3.63-8.45 5.3-11.2 9.36-1.17 5.58-1.46 12.99-8.11 14.78-9.07-1.02-18.1-6.78-21.97-15.14-4.56-1.46-10.8-2.86-13.56 2.18 4.23 4.58 3.37 11.61 6.97 16.65 2.34 3.45 2.08 7.76-0.78 10.83-9.04 1.12-19.12 2.3-25.46 9.59-17.32 14.91-17.97 43.86-4.8 61.53 6.71 12.55 19.33 20.61 31.21 27.77 14.79 6.45 30.17 15.33 46.89 13.21 8.06 6.81 6.95 18.47 12.12 27.02 37.1-13.37 74.83-26.07 109.88-44.49-0.02-4.06-0.09-8.12-0.15-12.17-7.48-6.51-9.26-16.51-13.14-25.15-13.02-31.4-23.58-63.77-36.92-95.03-1.8-5.43-9.47-4.4-11.43-9.77-3.86-5.66-0.85-12.54 0.63-18.4-3.69-3.14-7.4-6.26-11.1-9.39-6.38 2.53-13.44 4.89-16.6 11.61 0.77 13.97 13.35 21.75 22.65 30.14 0.27 12.83-1.28 25.69-2.46 38.46-2.18 6.71-7.98 15.17-15.73 10.37 0.37-0.07 1.11-0.2 1.49-0.26-1.46-1.06-2.92-2.09-4.4-3.1 1.08-0.62 2.16-1.23 3.25-1.85 4.25 3.28 9.2-5.69 5.9-9.22-4.23-10.17 1.51-20.05 4.06-29.76-9.96-11.09-19.09-23.84-21.68-38.91 5.37-8.79 15.89-11.83 24.66-16.1 9.05 6.96 20.85 17.85 16.2 30.46 6.11 2.3 12.19 4.8 18.56 6.32 3.58-3.71 7.28-7.3 11.1-10.76 3.89-13.1-9.23-17.11-18.76-19.07 1.72-4.02 3.41-8.05 4.96-12.13-8.55-3.55-18.39-5.12-25.01-12.22 1.24-4.04 4.17-7.27 5.78-11.14 0.26-7.82-6.55-16.55-15.09-13.31m-126.13 30.48c-5.48 5.62-11.66 11.67-12.79 19.84 10.36-7.4 21.74-11.01 34.71-7.97 3.97-4.82 7.81-9.74 11.55-14.74-11.17 0.8-22.39 1.26-33.47 2.87m167.51 3.08c2.06 14.79 16.54 23.59 13.91 39.6-3.45 4.06-7.01 8.04-10.9 11.68-3.96-0.58-7.94-1.05-11.93-1.31 6.34 31.19 21.82 59.45 32.89 89.1 3.21 11.67 13.37 19.14 18.15 29.96 6.3 7.73-1.94 15.95-5.69 22.6-18.07 9.61-36.61 18.43-54.95 27.55 15.63 11.91 38.45 1.57 56.51 3.34 8.1-5.56 12.51-16.05 16.73-24.85 0.98-34.57-0.84-69.25 1.04-103.82 0.02-30.06 2.28-60.75-5.32-90.15-16.1-4.94-33.73-6.62-50.44-3.7m-181.87 44.91c-0.23 19.18-0.58 38.38 0.28 57.55 12.23-3.8 18.37-18.74 32.29-19.73-0.4-5.24-1.03-10.52-2.55-15.56-4.48-6.51-15.17-6.41-17.68-14.56-1.74-5.22-8-5.74-12.34-7.7m9.46 173.56c7.58 2.41 14.38 8.27 22.78 6.92 18.58-1.95 37.34-2.18 55.81-5.07-8.93-6.19-18.86-11.68-30.14-11.02-24.05-6.31-43.65-24.21-57.54-44.29-1.23 18.18 3.5 36.27 9.09 53.46z"
     id="path2" />
  <path
     fill="#feeed2"
     d="m159.68 10.35c8.54-3.24 15.35 5.49 15.09 13.31-1.61 3.87-4.54 7.1-5.78 11.14 6.62 7.1 16.46 8.67 25.01 12.22-1.55 4.08-3.24 8.11-4.96 12.13 9.53 1.96 22.65 5.97 18.76 19.07-3.82 3.46-7.52 7.05-11.1 10.76-6.37-1.52-12.45-4.02-18.56-6.32 4.65-12.61-7.15-23.5-16.2-30.46-8.77 4.27-19.29 7.31-24.66 16.1 2.59 15.07 11.72 27.82 21.68 38.91-2.55 9.71-8.29 19.59-4.06 29.76 3.3 3.53-1.65 12.5-5.9 9.22-6.27-9.97-5.83-22.81-12.26-32.93 3.32-13.99-7.05-25.55-11.09-38.25-7.38-1.04-24.29 0.14-23.27 10.58-0.66 4.73 3.89 14.2-5.09 12.9-1.15 3.81-2.28 7.62-3.45 11.43-4.5 0.76-9.02 1.44-13.56 1.86-1.49-6.86-5.31-12.85-9.93-18.02-9.41 7.12-21.45-2.27-32.11 1.09-0.15-4.53-0.26-9.05-0.41-13.57-3.59-0.78-7.11-1.83-10.57-3.03-1.42-6.23 1.23-12.66 5.85-16.78 10.62-1.5 21.62 0.03 32.36 0.53 3.73-6.09 4.87-14.48 12.57-17.12 7.17-5.68 16.17 0.51 23.75-2.2 1.54-11.22 9.95-22.9 21.85-24.1 7.92-3.38 12.04 6.85 19.01 7.17 4.88-5.91 7.28-16.2 17.03-15.4z"
     id="path4" />
  <path
     fill="#61fb96"
     d="m33.55 40.83c11.08-1.61 22.3-2.07 33.47-2.87-3.74 5-7.58 9.92-11.55 14.74-12.97-3.04-24.35 0.57-34.71 7.97 1.13-8.17 7.31-14.22 12.79-19.84z"
     id="path6" />
  <path
     fill="#5ffe95"
     d="m201.06 43.91c16.71-2.92 34.34-1.24 50.44 3.7 7.6 29.4 5.34 60.09 5.32 90.15-1.88 34.57-0.06 69.25-1.04 103.82-4.22 8.8-8.63 19.29-16.73 24.85-18.06-1.77-40.88 8.57-56.51-3.34 18.34-9.12 36.88-17.94 54.95-27.55 3.75-6.65 11.99-14.87 5.69-22.6-4.78-10.82-14.94-18.29-18.15-29.96-11.07-29.65-26.55-57.91-32.89-89.1 3.99 0.26 7.97 0.73 11.93 1.31 3.89-3.64 7.45-7.62 10.9-11.68 2.63-16.01-11.85-24.81-13.91-39.6m24.75 57.12c1.57 6.04 3.29 12.05 5.31 17.95l2.84-0.16c0.11-4.14 0.22-8.28 0.37-12.41-2.87-1.77-5.65-3.64-8.52-5.38m-12.84 1.98c6.93 14.98 8.15 33.61 21.02 44.99 0.38-12.45-6.57-23.25-10.18-34.78-1.2-5.38-6.39-7.83-10.84-10.21m18.98 49.05c1.44 3.95 3.43 7.71 6.5 10.64 0.96-1.75 2.87-5.25 3.83-7-3.44-1.24-6.84-2.55-10.33-3.64z"
     id="path8" />
  <path
     fill="#fc7803"
     d="m144.2 72.43c3.16-6.72 10.22-9.08 16.6-11.61 3.7 3.13 7.41 6.25 11.1 9.39-1.48 5.86-4.49 12.74-0.63 18.4 1.96 5.37 9.63 4.34 11.43 9.77 13.34 31.26 23.9 63.63 36.92 95.03 3.88 8.64 5.66 18.64 13.14 25.15 0.06 4.05 0.13 8.11 0.15 12.17-35.05 18.42-72.78 31.12-109.88 44.49-5.17-8.55-4.06-20.21-12.12-27.02-16.72 2.12-32.1-6.76-46.89-13.21-11.88-7.16-24.5-15.22-31.21-27.77-5.6-13.31-10.9-28.67-5.65-42.9 4.79-8.23 12.4-14.39 18.98-21.14 4.54-4.69 11.96-3.14 16.93-7.08 2.86-3.07 3.12-7.38 0.78-10.83-3.6-5.04-2.74-12.07-6.97-16.65 2.76-5.04 9-3.64 13.56-2.18 3.87 8.36 12.9 14.12 21.97 15.14 6.65-1.79 6.94-9.2 8.11-14.78 2.75-4.06 7.92-5.73 11.2-9.36 0.94-3.61-2.59-6.31-3.68-9.48-0.4-1.21-0.73-2.44-1.1-3.66 4.6-1.6 9.23-3.1 13.84-4.68 8.48 14.07 1.6 33.47 14.51 45.24 5.45 8.46 0.04 24.02 13.37 26.54 7.75 4.8 13.55-3.66 15.73-10.37 1.18-12.77 2.73-25.63 2.46-38.46-9.3-8.39-21.88-16.17-22.65-30.14m-30.7 53.06c13.73 28.21 24.02 58.09 39.3 85.56 1.86 4.62 6.14 7.45 11.22 6.78-11.96-34.84-30.88-66.93-46.37-100.32-2.54 1.73-5.31 4.65-4.15 7.98m-26.83 9.91c10.48 29.4 30.69 54.31 41.06 83.81 0.86 2.93 2.47 5.58 4.93 7.45 9.33-12.55-2.11-26.86-8.67-37.67-11.04-18.21-17.96-38.56-28.2-57.22-3.06 1.16-6.08 2.42-9.12 3.63m-24.93 11.19c-14.33-0.97-23.81 15.25-26.53 26.6-3.12 29.51 22.88 51.78 48.51 60.22 8.24 2.11 19.64 6.76 26.7-0.43-10.69-26.92-23.75-53.04-31.11-81.11-1.57-8.54-11.41-6.01-17.57-5.28m99.51 8.19c6.7 16.35 14.37 32.29 21.76 48.35 0.66-0.15 2-0.43 2.67-0.57 3.66-9.56-2.63-18.61-6.13-27.16-4.23-8.42-5.96-21.12-18.3-20.62m7.55 78.05c-15.59 4.81-29.34 14.01-45 18.65 0.64 2.9 1.88 5.66 4.13 7.68 24.32-11.53 48.74-22.88 73.26-33.99 6.48-3.3 16.9-3.99 17.75-12.89-18.25 2.39-33.17 14.28-50.14 20.55z"
     id="path10" />
  <path
     fill="#070201"
     d="m102.38 85.59c-1.02-10.44 15.89-11.62 23.27-10.58 4.04 12.7 14.41 24.26 11.09 38.25 6.43 10.12 5.99 22.96 12.26 32.93-1.09 0.62-2.17 1.23-3.25 1.85 1.48 1.01 2.94 2.04 4.4 3.1-0.38 0.06-1.12 0.19-1.49 0.26-13.33-2.52-7.92-18.08-13.37-26.54-12.91-11.77-6.03-31.17-14.51-45.24-4.61 1.58-9.24 3.08-13.84 4.68 0.37 1.22 0.7 2.45 1.1 3.66-0.89-1.21-1.71-2.45-2.54-3.69-1.04 0.43-2.09 0.87-3.12 1.32z"
     id="path12" />
  <path
     fill="#5ffd96"
     d="m19.19 88.82c4.34 1.96 10.6 2.48 12.34 7.7 2.51 8.15 13.2 8.05 17.68 14.56 1.52 5.04 2.15 10.32 2.55 15.56-13.92 0.99-20.06 15.93-32.29 19.73-0.86-19.17-0.51-38.37-0.28-57.55z"
     id="path14" />
  <path
     fill="#010a02"
     d="m225.81 101.03c2.87 1.74 5.65 3.61 8.52 5.38-0.15 4.13-0.26 8.27-0.37 12.41l-2.84 0.16c-2.02-5.9-3.74-11.91-5.31-17.95z"
     id="path16" />
  <path
     fill="#010701"
     d="m212.97 103.01c4.45 2.38 9.64 4.83 10.84 10.21 3.61 11.53 10.56 22.33 10.18 34.78-12.87-11.38-14.09-30.01-21.02-44.99z"
     id="path18" />
  <path
     fill="#060102"
     d="m113.5 125.49c-1.16-3.33 1.61-6.25 4.15-7.98 15.49 33.39 34.41 65.48 46.37 100.32-5.08 0.67-9.36-2.16-11.22-6.78-15.28-27.47-25.57-57.35-39.3-85.56z"
     id="path20" />
  <path
     fill="#050102"
     d="m86.67 135.4c3.04-1.21 6.06-2.47 9.12-3.63 10.24 18.66 17.16 39.01 28.2 57.22 6.56 10.81 18 25.12 8.67 37.67-2.46-1.87-4.07-4.52-4.93-7.45-10.37-29.5-30.58-54.41-41.06-83.81z"
     id="path22" />
  <path
     fill="#f27910"
     d="m37.61 145.69c6.34-7.29 16.42-8.47 25.46-9.59-4.97 3.94-12.39 2.39-16.93 7.08-6.58 6.75-14.19 12.91-18.98 21.14-5.25 14.23 0.05 29.59 5.65 42.9-13.17-17.67-12.52-46.62 4.8-61.53z"
     id="path24" />
  <path
     fill="#020202"
     d="m61.74 146.59c6.16-0.73 16-3.26 17.57 5.28 7.36 28.07 20.42 54.19 31.11 81.11-7.06 7.19-18.46 2.54-26.7 0.43-25.63-8.44-51.63-30.71-48.51-60.22 2.72-11.35 12.2-27.57 26.53-26.6m-14.97 22.8c0.44 22.01 14.7 40.98 33.22 51.69 4.88 2.58 10.82 5.33 16.1 2.13-9.28-22.17-15.66-45.49-26.33-67.1-11.5-4.91-19.04 2.81-22.99 13.28z"
     id="path26" />
  <path
     fill="#010a03"
     d="m231.95 152.06c3.49 1.09 6.89 2.4 10.33 3.64-0.96 1.75-2.87 5.25-3.83 7-3.07-2.93-5.06-6.69-6.5-10.64z"
     id="path28" />
  <path
     fill="#5ffd96"
     d="m46.77 169.39c3.95-10.47 11.49-18.19 22.99-13.28 10.67 21.61 17.05 44.93 26.33 67.1-5.28 3.2-11.22 0.45-16.1-2.13-18.52-10.71-32.78-29.68-33.22-51.69z"
     id="path30" />
  <path
     fill="#080102"
     d="m161.25 154.78c12.34-0.5 14.07 12.2 18.3 20.62 3.5 8.55 9.79 17.6 6.13 27.16-0.67 0.14-2.01 0.42-2.67 0.57-7.39-16.06-15.06-32-21.76-48.35z"
     id="path32" />
  <path
     fill="#60fc96"
     d="m28.65 262.38c-5.59-17.19-10.32-35.28-9.09-53.46 13.89 20.08 33.49 37.98 57.54 44.29 11.28-0.66 21.21 4.83 30.14 11.02-18.47 2.89-37.23 3.12-55.81 5.07-8.4 1.35-15.2-4.51-22.78-6.92m2.87-8.66c6.91 3.88 8.03-2.96 9.29-8.1-3.42 2.3-6.34 5.23-9.29 8.1m16.42 7.23c1.67-0.04 5.01-0.12 6.68-0.17 0.78-3.33 1.59-6.65 2.25-10-3.34 3.05-6.08 6.67-8.93 10.17z"
     id="path34" />
  <path
     fill="#090101"
     d="m168.8 232.83c16.97-6.27 31.89-18.16 50.14-20.55-0.85 8.9-11.27 9.59-17.75 12.89-24.52 11.11-48.94 22.46-73.26 33.99-2.25-2.02-3.49-4.78-4.13-7.68 15.66-4.64 29.41-13.84 45-18.65z"
     id="path36" />
  <path
     fill="#001200"
     d="m31.52 253.72c2.95-2.87 5.87-5.8 9.29-8.1-1.26 5.14-2.38 11.98-9.29 8.1z"
     id="path38" />
  <path
     fill="#001201"
     d="m47.94 260.95c2.85-3.5 5.59-7.12 8.93-10.17-0.66 3.35-1.47 6.67-2.25 10-1.67 0.05-5.01 0.13-6.68 0.17z"
     id="path40" />
  <path
     d="m139.28 13.02c7.18-7.79 17.52-9.85 27.51-11.91 5.22 4.58 10.53 9.07 16.09 13.23 0.08 4.91-0.46 9.78-1 14.64 22.12 2.57 44.49-0.2 66.63 1.37 9.1 4.37 22.05 9.15 21.9 21.31 3.26 16.56 0.33 33.45 0.74 50.13-0.1 49.1 4.73 98.23-0.34 147.29-7.06 11.08-13.22 25.73-27.79 27.95-38.74 13.47-79.87 1.61-119.64 4.26-24.88 5.07-50.13-0.59-75.23-0.51-14.31 1.54-24.82-9.85-34.74-18.19-9.29-25.03-13.13-52.48-11.06-79.19 2.75-44.28 6.59-88.56 6.82-132.94 2.62-6.17 6.15-12.63 11.18-17.14 24.02-11.36 51.07 0.02 76.44-1.36 0.91-4.14 1.81-8.28 2.82-12.4 12.53-5.67 25.72-9.65 39.67-6.54m20.4-2.67c-9.75-0.8-12.15 9.49-17.03 15.4-6.97-0.32-11.09-10.55-19.01-7.17-11.9 1.2-20.31 12.88-21.85 24.1-7.58 2.71-16.58-3.48-23.75 2.2-7.7 2.64-8.84 11.03-12.57 17.12-10.74-0.5-21.74-2.03-32.36-0.53-4.62 4.12-7.27 10.55-5.85 16.78 3.46 1.2 6.98 2.25 10.57 3.03 0.15 4.52 0.26 9.04 0.41 13.57 10.66-3.36 22.7 6.03 32.11-1.09 4.62 5.17 8.44 11.16 9.93 18.02 4.54-0.42 9.06-1.1 13.56-1.86 1.17-3.81 2.3-7.62 3.45-11.43 8.98 1.3 4.43-8.17 5.09-12.9 1.03-0.45 2.08-0.89 3.12-1.32 0.83 1.24 1.65 2.48 2.54 3.69 1.09 3.17 4.62 5.87 3.68 9.48-3.28 3.63-8.45 5.3-11.2 9.36-1.17 5.58-1.46 12.99-8.11 14.78-9.07-1.02-18.1-6.78-21.97-15.14-4.56-1.46-10.8-2.86-13.56 2.18 4.23 4.58 3.37 11.61 6.97 16.65 2.34 3.45 2.08 7.76-0.78 10.83-9.04 1.12-19.12 2.3-25.46 9.59-17.32 14.91-17.97 43.86-4.8 61.53 6.71 12.55 19.33 20.61 31.21 27.77 14.79 6.45 30.17 15.33 46.89 13.21 8.06 6.81 6.95 18.47 12.12 27.02 37.1-13.37 74.83-26.07 109.88-44.49-0.02-4.06-0.09-8.12-0.15-12.17-7.48-6.51-9.26-16.51-13.14-25.15-13.02-31.4-23.58-63.77-36.92-95.03-1.8-5.43-9.47-4.4-11.43-9.77-3.86-5.66-0.85-12.54 0.63-18.4-3.69-3.14-7.4-6.26-11.1-9.39-6.38 2.53-13.44 4.89-16.6 11.61 0.77 13.97 13.35 21.75 22.65 30.14 0.27 12.83-1.28 25.69-2.46 38.46-2.18 6.71-7.98 15.17-15.73 10.37 0.37-0.07 1.11-0.2 1.49-0.26-1.46-1.06-2.92-2.09-4.4-3.1 1.08-0.62 2.16-1.23 3.25-1.85 4.25 3.28 9.2-5.69 5.9-9.22-4.23-10.17 1.51-20.05 4.06-29.76-9.96-11.09-19.09-23.84-21.68-38.91 5.37-8.79 15.89-11.83 24.66-16.1 9.05 6.96 20.85 17.85 16.2 30.46 6.11 2.3 12.19 4.8 18.56 6.32 3.58-3.71 7.28-7.3 11.1-10.76 3.89-13.1-9.23-17.11-18.76-19.07 1.72-4.02 3.41-8.05 4.96-12.13-8.55-3.55-18.39-5.12-25.01-12.22 1.24-4.04 4.17-7.27 5.78-11.14 0.26-7.82-6.55-16.55-15.09-13.31m-126.13 30.48c-5.48 5.62-11.66 11.67-12.79 19.84 10.36-7.4 21.74-11.01 34.71-7.97 3.97-4.82 7.81-9.74 11.55-14.74-11.17 0.8-22.39 1.26-33.47 2.87m167.51 3.08c2.06 14.79 16.54 23.59 13.91 39.6-3.45 4.06-7.01 8.04-10.9 11.68-3.96-0.58-7.94-1.05-11.93-1.31 6.34 31.19 21.82 59.45 32.89 89.1 3.21 11.67 13.37 19.14 18.15 29.96 6.3 7.73-1.94 15.95-5.69 22.6-18.07 9.61-36.61 18.43-54.95 27.55 15.63 11.91 38.45 1.57 56.51 3.34 8.1-5.56 12.51-16.05 16.73-24.85 0.98-34.57-0.84-69.25 1.04-103.82 0.02-30.06 2.28-60.75-5.32-90.15-16.1-4.94-33.73-6.62-50.44-3.7m-181.87 44.91c-0.23 19.18-0.58 38.38 0.28 57.55 12.23-3.8 18.37-18.74 32.29-19.73-0.4-5.24-1.03-10.52-2.55-15.56-4.48-6.51-15.17-6.41-17.68-14.56-1.74-5.22-8-5.74-12.34-7.7m9.46 173.56c7.58 2.41 14.38 8.27 22.78 6.92 18.58-1.95 37.34-2.18 55.81-5.07-8.93-6.19-18.86-11.68-30.14-11.02-24.05-6.31-43.65-24.21-57.54-44.29-1.23 18.18 3.5 36.27 9.09 53.46z"
     fill="#010101"
     id="path42" />
  <path
     d="m159.68 10.35c8.54-3.24 15.35 5.49 15.09 13.31-1.61 3.87-4.54 7.1-5.78 11.14 6.62 7.1 16.46 8.67 25.01 12.22-1.55 4.08-3.24 8.11-4.96 12.13 9.53 1.96 22.65 5.97 18.76 19.07-3.82 3.46-7.52 7.05-11.1 10.76-6.37-1.52-12.45-4.02-18.56-6.32 4.65-12.61-7.15-23.5-16.2-30.46-8.77 4.27-19.29 7.31-24.66 16.1 2.59 15.07 11.72 27.82 21.68 38.91-2.55 9.71-8.29 19.59-4.06 29.76 3.3 3.53-1.65 12.5-5.9 9.22-6.27-9.97-5.83-22.81-12.26-32.93 3.32-13.99-7.05-25.55-11.09-38.25-7.38-1.04-24.29 0.14-23.27 10.58-0.66 4.73 3.89 14.2-5.09 12.9-1.15 3.81-2.28 7.62-3.45 11.43-4.5 0.76-9.02 1.44-13.56 1.86-1.49-6.86-5.31-12.85-9.93-18.02-9.41 7.12-21.45-2.27-32.11 1.09-0.15-4.53-0.26-9.05-0.41-13.57-3.59-0.78-7.11-1.83-10.57-3.03-1.42-6.23 1.23-12.66 5.85-16.78 10.62-1.5 21.62 0.03 32.36 0.53 3.73-6.09 4.87-14.48 12.57-17.12 7.17-5.68 16.17 0.51 23.75-2.2 1.54-11.22 9.95-22.9 21.85-24.1 7.92-3.38 12.04 6.85 19.01 7.17 4.88-5.91 7.28-16.2 17.03-15.4z"
     fill="#feeed2"
     id="path44" />
  <path
     d="m33.55 40.83c11.08-1.61 22.3-2.07 33.47-2.87-3.74 5-7.58 9.92-11.55 14.74-12.97-3.04-24.35 0.57-34.71 7.97 1.13-8.17 7.31-14.22 12.79-19.84z"
     fill="#61fb96"
     id="path46" />
  <path
     d="m201.06 43.91c16.71-2.92 34.34-1.24 50.44 3.7 7.6 29.4 5.34 60.09 5.32 90.15-1.88 34.57-0.06 69.25-1.04 103.82-4.22 8.8-8.63 19.29-16.73 24.85-18.06-1.77-40.88 8.57-56.51-3.34 18.34-9.12 36.88-17.94 54.95-27.55 3.75-6.65 11.99-14.87 5.69-22.6-4.78-10.82-14.94-18.29-18.15-29.96-11.07-29.65-26.55-57.91-32.89-89.1 3.99 0.26 7.97 0.73 11.93 1.31 3.89-3.64 7.45-7.62 10.9-11.68 2.63-16.01-11.85-24.81-13.91-39.6m24.75 57.12c1.57 6.04 3.29 12.05 5.31 17.95l2.84-0.16c0.11-4.14 0.22-8.28 0.37-12.41-2.87-1.77-5.65-3.64-8.52-5.38m-12.84 1.98c6.93 14.98 8.15 33.61 21.02 44.99 0.38-12.45-6.57-23.25-10.18-34.78-1.2-5.38-6.39-7.83-10.84-10.21m18.98 49.05c1.44 3.95 3.43 7.71 6.5 10.64 0.96-1.75 2.87-5.25 3.83-7-3.44-1.24-6.84-2.55-10.33-3.64z"
     fill="#5ffe95"
     id="path48" />
  <path
     d="m144.2 72.43c3.16-6.72 10.22-9.08 16.6-11.61 3.7 3.13 7.41 6.25 11.1 9.39-1.48 5.86-4.49 12.74-0.63 18.4 1.96 5.37 9.63 4.34 11.43 9.77 13.34 31.26 23.9 63.63 36.92 95.03 3.88 8.64 5.66 18.64 13.14 25.15 0.06 4.05 0.13 8.11 0.15 12.17-35.05 18.42-72.78 31.12-109.88 44.49-5.17-8.55-4.06-20.21-12.12-27.02-16.72 2.12-32.1-6.76-46.89-13.21-11.88-7.16-24.5-15.22-31.21-27.77-5.6-13.31-10.9-28.67-5.65-42.9 4.79-8.23 12.4-14.39 18.98-21.14 4.54-4.69 11.96-3.14 16.93-7.08 2.86-3.07 3.12-7.38 0.78-10.83-3.6-5.04-2.74-12.07-6.97-16.65 2.76-5.04 9-3.64 13.56-2.18 3.87 8.36 12.9 14.12 21.97 15.14 6.65-1.79 6.94-9.2 8.11-14.78 2.75-4.06 7.92-5.73 11.2-9.36 0.94-3.61-2.59-6.31-3.68-9.48-0.4-1.21-0.73-2.44-1.1-3.66 4.6-1.6 9.23-3.1 13.84-4.68 8.48 14.07 1.6 33.47 14.51 45.24 5.45 8.46 0.04 24.02 13.37 26.54 7.75 4.8 13.55-3.66 15.73-10.37 1.18-12.77 2.73-25.63 2.46-38.46-9.3-8.39-21.88-16.17-22.65-30.14m-30.7 53.06c13.73 28.21 24.02 58.09 39.3 85.56 1.86 4.62 6.14 7.45 11.22 6.78-11.96-34.84-30.88-66.93-46.37-100.32-2.54 1.73-5.31 4.65-4.15 7.98m-26.83 9.91c10.48 29.4 30.69 54.31 41.06 83.81 0.86 2.93 2.47 5.58 4.93 7.45 9.33-12.55-2.11-26.86-8.67-37.67-11.04-18.21-17.96-38.56-28.2-57.22-3.06 1.16-6.08 2.42-9.12 3.63m-24.93 11.19c-14.33-0.97-23.81 15.25-26.53 26.6-3.12 29.51 22.88 51.78 48.51 60.22 8.24 2.11 19.64 6.76 26.7-0.43-10.69-26.92-23.75-53.04-31.11-81.11-1.57-8.54-11.41-6.01-17.57-5.28m99.51 8.19c6.7 16.35 14.37 32.29 21.76 48.35 0.66-0.15 2-0.43 2.67-0.57 3.66-9.56-2.63-18.61-6.13-27.16-4.23-8.42-5.96-21.12-18.3-20.62m7.55 78.05c-15.59 4.81-29.34 14.01-45 18.65 0.64 2.9 1.88 5.66 4.13 7.68 24.32-11.53 48.74-22.88 73.26-33.99 6.48-3.3 16.9-3.99 17.75-12.89-18.25 2.39-33.17 14.28-50.14 20.55z"
     fill="#fc7803"
     id="path50" />
  <path
     d="m102.38 85.59c-1.02-10.44 15.89-11.62 23.27-10.58 4.04 12.7 14.41 24.26 11.09 38.25 6.43 10.12 5.99 22.96 12.26 32.93-1.09 0.62-2.17 1.23-3.25 1.85 1.48 1.01 2.94 2.04 4.4 3.1-0.38 0.06-1.12 0.19-1.49 0.26-13.33-2.52-7.92-18.08-13.37-26.54-12.91-11.77-6.03-31.17-14.51-45.24-4.61 1.58-9.24 3.08-13.84 4.68 0.37 1.22 0.7 2.45 1.1 3.66-0.89-1.21-1.71-2.45-2.54-3.69-1.04 0.43-2.09 0.87-3.12 1.32z"
     fill="#070201"
     id="path52" />
  <path
     d="m19.19 88.82c4.34 1.96 10.6 2.48 12.34 7.7 2.51 8.15 13.2 8.05 17.68 14.56 1.52 5.04 2.15 10.32 2.55 15.56-13.92 0.99-20.06 15.93-32.29 19.73-0.86-19.17-0.51-38.37-0.28-57.55z"
     fill="#5ffd96"
     id="path54" />
  <path
     d="m225.81 101.03c2.87 1.74 5.65 3.61 8.52 5.38-0.15 4.13-0.26 8.27-0.37 12.41l-2.84 0.16c-2.02-5.9-3.74-11.91-5.31-17.95z"
     fill="#010a02"
     id="path56" />
  <path
     d="m212.97 103.01c4.45 2.38 9.64 4.83 10.84 10.21 3.61 11.53 10.56 22.33 10.18 34.78-12.87-11.38-14.09-30.01-21.02-44.99z"
     fill="#010701"
     id="path58" />
  <path
     d="m113.5 125.49c-1.16-3.33 1.61-6.25 4.15-7.98 15.49 33.39 34.41 65.48 46.37 100.32-5.08 0.67-9.36-2.16-11.22-6.78-15.28-27.47-25.57-57.35-39.3-85.56z"
     fill="#060102"
     id="path60" />
  <path
     d="m86.67 135.4c3.04-1.21 6.06-2.47 9.12-3.63 10.24 18.66 17.16 39.01 28.2 57.22 6.56 10.81 18 25.12 8.67 37.67-2.46-1.87-4.07-4.52-4.93-7.45-10.37-29.5-30.58-54.41-41.06-83.81z"
     fill="#050102"
     id="path62" />
  <path
     d="m37.61 145.69c6.34-7.29 16.42-8.47 25.46-9.59-4.97 3.94-12.39 2.39-16.93 7.08-6.58 6.75-14.19 12.91-18.98 21.14-5.25 14.23 0.05 29.59 5.65 42.9-13.17-17.67-12.52-46.62 4.8-61.53z"
     fill="#f27910"
     id="path64" />
  <path
     d="m61.74 146.59c6.16-0.73 16-3.26 17.57 5.28 7.36 28.07 20.42 54.19 31.11 81.11-7.06 7.19-18.46 2.54-26.7 0.43-25.63-8.44-51.63-30.71-48.51-60.22 2.72-11.35 12.2-27.57 26.53-26.6m-14.97 22.8c0.44 22.01 14.7 40.98 33.22 51.69 4.88 2.58 10.82 5.33 16.1 2.13-9.28-22.17-15.66-45.49-26.33-67.1-11.5-4.91-19.04 2.81-22.99 13.28z"
     fill="#020202"
     id="path66" />
  <path
     d="m231.95 152.06c3.49 1.09 6.89 2.4 10.33 3.64-0.96 1.75-2.87 5.25-3.83 7-3.07-2.93-5.06-6.69-6.5-10.64z"
     fill="#010a03"
     id="path68" />
  <path
     d="m46.77 169.39c3.95-10.47 11.49-18.19 22.99-13.28 10.67 21.61 17.05 44.93 26.33 67.1-5.28 3.2-11.22 0.45-16.1-2.13-18.52-10.71-32.78-29.68-33.22-51.69z"
     fill="#5ffd96"
     id="path70" />
  <path
     d="m161.25 154.78c12.34-0.5 14.07 12.2 18.3 20.62 3.5 8.55 9.79 17.6 6.13 27.16-0.67 0.14-2.01 0.42-2.67 0.57-7.39-16.06-15.06-32-21.76-48.35z"
     fill="#080102"
     id="path72" />
  <path
     d="m28.65 262.38c-5.59-17.19-10.32-35.28-9.09-53.46 13.89 20.08 33.49 37.98 57.54 44.29 11.28-0.66 21.21 4.83 30.14 11.02-18.47 2.89-37.23 3.12-55.81 5.07-8.4 1.35-15.2-4.51-22.78-6.92m2.87-8.66c6.91 3.88 8.03-2.96 9.29-8.1-3.42 2.3-6.34 5.23-9.29 8.1m16.42 7.23c1.67-0.04 5.01-0.12 6.68-0.17 0.78-3.33 1.59-6.65 2.25-10-3.34 3.05-6.08 6.67-8.93 10.17z"
     fill="#60fc96"
     id="path74" />
  <path
     d="m168.8 232.83c16.97-6.27 31.89-18.16 50.14-20.55-0.85 8.9-11.27 9.59-17.75 12.89-24.52 11.11-48.94 22.46-73.26 33.99-2.25-2.02-3.49-4.78-4.13-7.68 15.66-4.64 29.41-13.84 45-18.65z"
     fill="#090101"
     id="path76" />
  <path
     d="m31.52 253.72c2.95-2.87 5.87-5.8 9.29-8.1-1.26 5.14-2.38 11.98-9.29 8.1z"
     fill="#001200"
     id="path78" />
  <path
     d="m47.94 260.95c2.85-3.5 5.59-7.12 8.93-10.17-0.66 3.35-1.47 6.67-2.25 10-1.67 0.05-5.01 0.13-6.68 0.17z"
     fill="#001201"
     id="path80" />
</svg>
